<svg height="512" viewBox="0 0 512 512" width="512" xmlns="http://www.w3.org/2000/svg"><g id="Flat"><path d="m440 232a208.338 208.338 0 0 1 -2.93 34.93c-16.6 98.25-102.09 173.07-205.07 173.07a207.8 207.8 0 0 1 -207.99-205.99c-.01-.67-.01-1.34-.01-2.01a208 208 0 1 1 416 0z" fill="#348fd9"/><path d="m440 232a208.338 208.338 0 0 1 -2.93 34.93c-16.6 98.25-102.09 173.07-205.07 173.07a208.077 208.077 0 0 1 -196.21-138.81 198.97 198.97 0 0 0 84.05 18.49c110.37 0 199.84-89.47 199.84-199.84a198.97 198.97 0 0 0 -18.49-84.05 206.236 206.236 0 0 1 34.81 16.04 208.02 208.02 0 0 1 104 180.17z" fill="#3086cd"/><g fill="#4db7e5"><path d="m224 160v32h-32l-32 48h-64v48l-71.99-53.99c-.01-.67-.01-1.34-.01-2.01a207.308 207.308 0 0 1 57.9-144h30.1l24 40h64z"/><path d="m184 336-24 56h-40v-56h-24v-48h56v48z"/><path d="m336 51.83v36.17h-40l-16 32h-24v-56h-40l-20.98-36.72a209.323 209.323 0 0 1 106.17 8.51 206.236 206.236 0 0 1 34.81 16.04z"/><path d="m440 232a208.338 208.338 0 0 1 -2.93 34.93l-29.07 29.07h-40v-72h-56v-64l24-24h40l25.12-25.12a207.069 207.069 0 0 1 38.88 121.12z"/></g><path d="m152 336h32l-24 56h-40v-56h-24v-17.73a201.742 201.742 0 0 0 23.84 1.41 200.535 200.535 0 0 0 32.16-2.58z" fill="#4aafdb"/><path d="m317.15 88a197.679 197.679 0 0 0 -15.96-52.21 206.236 206.236 0 0 1 34.81 16.04v36.17z" fill="#4aafdb"/><path d="m440 232a208.338 208.338 0 0 1 -2.93 34.93l-29.07 29.07h-40v-72h-56v-49.11q2.715-9.51 4.51-19.4l19.49-19.49h40l25.12-25.12a207.069 207.069 0 0 1 38.88 121.12z" fill="#4aafdb"/><path d="m368 400 81.373 81.373a22.627 22.627 0 0 0 16 6.627 22.628 22.628 0 0 0 22.627-22.627 22.627 22.627 0 0 0 -6.627-16l-81.373-81.373z" fill="#de4132"/><circle cx="328" cy="328" fill="#f35244" r="112"/><circle cx="328" cy="328" fill="#5ac6d4" r="80"/><circle cx="328" cy="328" fill="#60d1e0" r="56"/><path d="m309.335 275.188 5.33 15.086a39.953 39.953 0 0 1 13.335-2.274v-16a55.889 55.889 0 0 0 -18.665 3.188z" fill="#9fe4ed"/><path d="m301.335 298.184-10.67-11.922a56 56 0 0 0 0 83.476l10.67-11.922a40 40 0 0 1 0-59.632z" fill="#9fe4ed"/><path d="m182.408 475.039a249.17 249.17 0 0 1 -160.225-110.767l13.527-8.544a233.1 233.1 0 0 0 149.882 103.631z" fill="#a0dde5"/><path d="m232 480c-8.266 0-16.606-.412-24.79-1.224l1.58-15.922c7.66.76 15.47 1.146 23.21 1.146z" fill="#a0dde5"/><path d="m478.776 256.79-15.922-1.58c.76-7.66 1.146-15.47 1.146-23.21a232.408 232.408 0 0 0 -52.448-146.93l12.377-10.14a248.452 248.452 0 0 1 56.071 157.07c0 8.266-.412 16.606-1.224 24.79z" fill="#a0dde5"/><path d="m397.682 69.6c-5.3-5.406-10.924-10.61-16.722-15.47l10.279-12.262c6.2 5.193 12.206 10.755 17.868 16.53z" fill="#a0dde5"/><path d="m91.139 140.372-13.4-8.744a185.088 185.088 0 0 1 10.907-15l12.454 10.044a168.69 168.69 0 0 0 -9.961 13.7z" fill="#79c6e8"/><path d="m64.5 219-15.953-1.219a182.283 182.283 0 0 1 19.5-69.422l14.248 7.282a166.348 166.348 0 0 0 -17.795 63.359z" fill="#79c6e8"/></g></svg>