<svg height="512" viewBox="0 0 512 512" width="512" xmlns="http://www.w3.org/2000/svg"><g id="Flat"><path d="m205.334 360h-173.334a53.334 53.334 0 0 1 0 64h173.334a53.334 53.334 0 0 0 0-64z" fill="#ead7bc"/><path d="m437.334 360h-232a53.334 53.334 0 0 1 0 64h232a53.334 53.334 0 0 0 0-64z" fill="#f35244"/><path d="m445.54 376h-232a53.071 53.071 0 0 0 -8.21-16h232a53.071 53.071 0 0 1 8.21 16z" fill="#e64c3f"/><path d="m260.838 423.628a8.022 8.022 0 0 1 -2.22-10.218 45.709 45.709 0 0 0 0-42.82 8.022 8.022 0 0 1 2.22-10.218 8 8 0 0 1 11.849 2.6 61.842 61.842 0 0 1 0 58.05 8 8 0 0 1 -11.849 2.606z" fill="#d63f30"/><path d="m388.838 423.628a8.022 8.022 0 0 1 -2.22-10.218 45.709 45.709 0 0 0 0-42.82 8.022 8.022 0 0 1 2.22-10.218 8 8 0 0 1 11.849 2.6 61.842 61.842 0 0 1 0 58.05 8 8 0 0 1 -11.849 2.606z" fill="#d63f30"/><rect fill="#d4c2aa" height="16" rx="8" width="176" x="40" y="384"/><path d="m306.667 486.768h173.333a53.334 53.334 0 0 1 0-64h-173.333a53.334 53.334 0 0 0 0 64z" fill="#ead7bc"/><path d="m74.667 486.768h232a53.334 53.334 0 0 1 0-64h-232a53.334 53.334 0 0 0 0 64z" fill="#ffb531"/><path d="m306.67 422.77a53.351 53.351 0 0 0 -8.59 17.23h-232a53.351 53.351 0 0 1 8.59-17.23z" fill="#ffa912"/><path d="m251.162 423.139a8.022 8.022 0 0 1 2.22 10.218 45.711 45.711 0 0 0 0 42.821 8.022 8.022 0 0 1 -2.22 10.218 8 8 0 0 1 -11.849-2.6 61.844 61.844 0 0 1 0-58.051 8 8 0 0 1 11.849-2.606z" fill="#ed8c0c"/><path d="m123.162 423.139a8.022 8.022 0 0 1 2.22 10.218 45.711 45.711 0 0 0 0 42.821 8.022 8.022 0 0 1 -2.22 10.218 8 8 0 0 1 -11.849-2.6 61.844 61.844 0 0 1 0-58.051 8 8 0 0 1 11.849-2.606z" fill="#ed8c0c"/><rect fill="#d4c2aa" height="16" rx="8" width="176" x="296" y="446.768"/><rect fill="#348fd9" height="320" rx="24" width="368" x="72" y="24"/><path d="m416 24h-111.816l-124.494 320h236.31a24 24 0 0 0 24-24v-272a24 24 0 0 0 -24-24z" fill="#3086cd"/><path d="m392 216h-16v-75.667a8 8 0 0 1 8-8 8 8 0 0 1 8 8z" fill="#7a432a"/><path d="m304 320a27.315 27.315 0 0 1 -19.314 8h-57.372a27.315 27.315 0 0 1 -19.314-8 27.315 27.315 0 0 0 -19.314-8h-148.686v24a24 24 0 0 0 24 24h384a24 24 0 0 0 24-24v-24h-148.686a27.315 27.315 0 0 0 -19.314 8z" fill="#ebebe9"/><path d="m408 312v24a24 24 0 0 1 -24 24h64a24 24 0 0 0 24-24v-24z" fill="#e0e0de"/><path d="m336 136v128a207.584 207.584 0 0 0 -77.14 14.86l-2.86 1.14-2.86-1.14a207.584 207.584 0 0 0 -77.14-14.86v-128z" fill="#3b495e"/><path d="m336 136v44.44l-80 35.56-80-35.56v-44.44z" fill="#374357"/><path d="m112 136 144-64 144 64-144 64z" fill="#4d5e78"/><path d="m368 264h32l-16-48z" fill="#ffb531"/><path d="m259.807 135.281a8 8 0 0 1 3.37-10.622l53.29-28.61a8 8 0 0 1 10.823 3.531 8 8 0 0 1 -3.486 10.686l-53.062 28.484a8 8 0 0 1 -10.935-3.469z" fill="#7a432a"/><circle cx="256" cy="136" fill="#556a8a" r="16"/><g fill="#2a71ad"><path d="m96 48h16v16h-16z"/><path d="m128 48h16v16h-16z"/><path d="m160 48h16v16h-16z"/></g><path d="m96 160h16v16h-16z" fill="#62a9e6"/><path d="m96 192h16v80h-16z" fill="#62a9e6"/></g></svg>