<svg height="512" viewBox="0 0 512 512" width="512" xmlns="http://www.w3.org/2000/svg"><g id="Flat"><path d="m392 24v432h-304v-368l64-64z" fill="#60d1e0"/><path d="m392 54.51v401.49h-304v-15.17z" fill="#5ac6d4"/><path d="m392 24h32v432h-32z" fill="#348fd9"/><path d="m400 392-43.875-65.812a24.563 24.563 0 0 1 -4.125-13.625 24.563 24.563 0 0 1 24.563-24.563h2.291a24.562 24.562 0 0 1 20.438 10.938l24.708 37.062v-96a36 36 0 0 1 33.231 22.154 400.013 400.013 0 0 1 30.769 153.846v72h-80l-2.232-3.348a92.474 92.474 0 0 1 -5.768-92.652z" fill="#fec9a3"/><path d="m436.794 366.444-20.749-27.438a8 8 0 0 1 1.581-11.225 8 8 0 0 1 11.18 1.574l20.75 27.439a8 8 0 0 1 -1.581 11.225 8 8 0 0 1 -11.181-1.575z" fill="#f7ad7c"/><path d="m272 64h80v88h-80z" fill="#f35244"/><path d="m323.606 122.992a16 16 0 1 0 -23.212 0 23.991 23.991 0 0 0 -12.394 21.008v8h48v-8a23.991 23.991 0 0 0 -12.394-21.008z" fill="#7a432a"/><path d="m88 88h64v-64z" fill="#b7e7eb"/><path d="m112 392 43.875-65.812a24.563 24.563 0 0 0 4.125-13.625 24.563 24.563 0 0 0 -24.563-24.563h-2.291a24.562 24.562 0 0 0 -20.438 10.938l-24.708 37.062v-96a36 36 0 0 0 -33.231 22.154 400.013 400.013 0 0 0 -30.769 153.846v72h80l2.232-3.348a92.474 92.474 0 0 0 5.768-92.652z" fill="#fec9a3"/><path d="m75.206 366.444 20.749-27.438a8 8 0 0 0 -1.581-11.225 8 8 0 0 0 -11.18 1.574l-20.75 27.439a8 8 0 0 0 1.581 11.225 8 8 0 0 0 11.181-1.575z" fill="#f7ad7c"/><g fill="#3fb5c4"><path d="m184 80h40v16h-40z"/><path d="m120 144h56v16h-56z"/><path d="m120 112h104v16h-104z"/><path d="m120 176h240v16h-240z"/><path d="m176 272h24v16h-24z"/><path d="m120 208h80v16h-80z"/><path d="m240 208h120v16h-120z"/><path d="m240 240h72v16h-72z"/><path d="m328 240h32v16h-32z"/><path d="m240 272h96v16h-96z"/><path d="m240 304h88v16h-88z"/><path d="m144 400h216v16h-216z"/><path d="m120 240h24v16h-24z"/><path d="m184 304h16v16h-16z"/><path d="m160 240h40v16h-40z"/><path d="m240 336h96v16h-96z"/><path d="m240 368h120v16h-120z"/><path d="m176 336h24v16h-24z"/><path d="m152 368h48v16h-48z"/><path d="m192 144h32v16h-32z"/></g></g></svg>