<svg height="512" viewBox="0 0 512 512" width="512" xmlns="http://www.w3.org/2000/svg"><g id="Flat"><path d="m64 40h384v344h-384z" fill="#e0e0de"/><path d="m448 40v344h-384v-44.48c130.63-42.11 260.6-131.98 332.15-299.52z" fill="#dbdbd9"/><path d="m416 96h-320a8 8 0 0 0 -8 8v232a8 8 0 0 0 8 8h320a8 8 0 0 0 8-8v-232a8 8 0 0 0 -8-8zm-8 56h-48v-40h48zm-176 64v-48h48v48zm48 16v40h-48v-40zm16-64h48v48h-48zm0-16v-40h48v40zm-16 0h-48v-40h48zm-64 0h-48v-40h48zm0 16v48h-48v-48zm-64 48h-48v-48h48zm0 16v40h-48v-40zm16 0h48v40h-48zm48 56v40h-48v-40zm16 0h48v40h-48zm64 0h48v40h-48zm0-16v-40h48v40zm64-40h48v40h-48zm0-16v-48h48v48zm-208-104v40h-48v-40zm-48 176h48v40h-48zm256 40v-40h48v40z" fill="#cfcfcd"/><path d="m218.732 97.979-26.732 23.391-26.732-23.391-10.536 12.042 25.12 21.979-25.12 21.979 10.536 12.042 26.732-23.391 26.732 23.391 10.536-12.042-25.12-21.979 25.12-21.979z" fill="#f35244"/><path d="m357.268 166.021-10.536-12.042-26.732 23.391-26.732-23.391-10.536 12.042 25.12 21.979-25.12 21.979 10.536 12.042 26.732-23.391 26.732 23.391 10.536-12.042-25.12-21.979z" fill="#f35244"/><path d="m488 384h-40v-344z" fill="#3086cd"/><g fill="#bfbfbd"><rect height="48" rx="8" width="16" x="248" y="16"/><rect height="48" rx="8" width="16" x="200" y="16"/><rect height="48" rx="8" width="16" x="344" y="16"/><rect height="48" rx="8" width="16" x="392" y="16"/><rect height="48" rx="8" width="16" x="296" y="16"/><rect height="48" rx="8" width="16" x="152" y="16"/><rect height="48" rx="8" width="16" x="104" y="16"/></g><path d="m64 296 36-36a16.971 16.971 0 0 1 24 0 16.971 16.971 0 0 1 0 24l-36 36v6.059a81.941 81.941 0 0 1 -24 57.941h-40v-105.352a82.39 82.39 0 0 1 40-70.648z" fill="#fec9a3"/><path d="m24 384h96v48h-96z" fill="#348fd9"/><path d="m464 400.45v63.55a24.006 24.006 0 0 1 -24 24h-112l-5-4.29-45.26-38.79a16.466 16.466 0 0 1 -5.34-16.11 16.766 16.766 0 0 1 16.47-12.81h1.36a16.425 16.425 0 0 1 10.27 3.6l35.5 28.4v-112.45a15.992 15.992 0 0 1 16.77-15.98c8.61.4 15.23 7.81 15.23 16.43v64a16 16 0 0 1 32 0 16 16 0 0 1 32 0 16 16 0 0 1 16.77-15.98c8.61.4 15.23 7.82 15.23 16.43z" fill="#fec9a3"/><path d="m24 384h96v24h-96z" fill="#3086cd"/><path d="m464 402.81v61.19a24.006 24.006 0 0 1 -24 24h-112l-5-4.29c49.02-18.47 97.28-44.78 141-80.9z" fill="#fec093"/></g></svg>