<svg height="512" viewBox="0 0 512 512" width="512" xmlns="http://www.w3.org/2000/svg"><g id="Flat"><path d="m368 392h-128l24-64h80z" fill="#d6d6d4"/><path d="m353 352h-98l9-24h80z" fill="#c7c7c5"/><path d="m216 384h176v16h-176z" fill="#e0e0de"/><path d="m144 56a24 24 0 0 0 -24 24v200h368v-200a24 24 0 0 0 -24-24z" fill="#348fd9"/><path d="m120 280v24a24 24 0 0 0 24 24h320a24 24 0 0 0 24-24v-24z" fill="#e0e0de"/><path d="m456 280v24a24 24 0 0 1 -24 24h32a24 24 0 0 0 24-24v-24z" fill="#d6d6d4"/><path d="m448 48v232h-288v-232a24.006 24.006 0 0 1 24-24h240a24.006 24.006 0 0 1 24 24z" fill="#60d1e0"/><path d="m448 48v232h-217.19l81.19-119.25 10.7-15.71 82.4-121.04h18.9a24.006 24.006 0 0 1 24 24z" fill="#5ac6d4"/><path d="m328 160v120h-16v-120a24.273 24.273 0 0 0 -24-24h16a23.61 23.61 0 0 1 7.31 1.26 24.185 24.185 0 0 1 11.39 7.78 23.654 23.654 0 0 1 5.3 14.96z" fill="#57bfcc"/><path d="m160 264h288v16h-288z" fill="#5ac6d4"/><path d="m184 48h16v16h-16z" fill="#3fb7c7"/><path d="m216 48h16v16h-16z" fill="#3fb7c7"/><path d="m248 48h16v16h-16z" fill="#3fb7c7"/><path d="m184 240h232v16h-232z" fill="#3fb7c7"/><path d="m208 96h16v144h-16z" fill="#348fd9"/><path d="m272 112h16v128h-16z" fill="#348fd9"/><path d="m240 104h16v136h-16z" fill="#348fd9"/><path d="m336 144h16v96h-16z" fill="#348fd9"/><path d="m304 120h16v120h-16z" fill="#348fd9"/><path d="m400 96h16v144h-16z" fill="#348fd9"/><path d="m368 128h16v112h-16z" fill="#348fd9"/><rect fill="#f35244" height="352" rx="24" width="288" x="24" y="136"/><path d="m312 384v8 8h16v-8-8z" fill="#d6d6d4"/><path d="m312 280h16v48h-16z" fill="#d6d6d4"/><path d="m312 328v24 32h16v-32-24z" fill="#c7c7c5"/><path d="m56 168h224v288h-224z" fill="#57bfcc"/><path d="m224 424h-168v-256h224v200z" fill="#60d1e0"/><path d="m224 424 56-56h-56z" fill="#9fe4ed"/><path d="m192 136v-8a24 24 0 0 0 -24-24 24 24 0 0 0 -24 24v8h-32a24 24 0 0 0 -24 24v24h160v-24a24 24 0 0 0 -24-24z" fill="#ffb531"/><g fill="#3fb7c7"><path d="m120 216h-32a8 8 0 0 0 -8 8v32a8 8 0 0 0 8 8h32a8 8 0 0 0 8-8v-32a8 8 0 0 0 -8-8zm-8 32h-16v-16h16z"/><path d="m144 216h112v16h-112z"/><path d="m144 248h64v16h-64z"/><path d="m120 280h-32a8 8 0 0 0 -8 8v32a8 8 0 0 0 8 8h32a8 8 0 0 0 8-8v-32a8 8 0 0 0 -8-8zm-8 32h-16v-16h16z"/><path d="m144 280h112v16h-112z"/><path d="m144 312h40v16h-40z"/><path d="m120 344h-32a8 8 0 0 0 -8 8v32a8 8 0 0 0 8 8h32a8 8 0 0 0 8-8v-32a8 8 0 0 0 -8-8zm-8 32h-16v-16h16z"/><path d="m144 344h56v16h-56z"/><path d="m144 376h56v16h-56z"/></g><path d="m97.373 216.001h45.255v15.998h-45.255z" fill="#348fd9" transform="matrix(.707 -.707 .707 .707 -123.245 150.461)"/><path d="m97.373 280.001h45.255v15.998h-45.255z" fill="#348fd9" transform="matrix(.707 -.707 .707 .707 -168.5 169.206)"/><path d="m304 488h168a16 16 0 0 0 16-16 16 16 0 0 0 -16-16h-168a54.624 54.624 0 0 0 -38.627 16 54.624 54.624 0 0 0 38.627 16z" fill="#348fd9"/><path d="m472 456h-66.123l-33.959 32h100.082a16 16 0 0 0 0-32z" fill="#3086cd"/><path d="m464 488h-16v-48a8.008 8.008 0 0 0 -8-8h-56v-16h56a24.027 24.027 0 0 1 24 24z" fill="#e0e0de"/></g></svg>