<?xml version="1.0" encoding="utf-8"?>
<!-- Generator: Adobe Illustrator 22.0.1, SVG Export Plug-In . SVG Version: 6.00 Build 0)  -->
<svg version="1.1" id="Layer_1" xmlns="http://www.w3.org/2000/svg" xmlns:xlink="http://www.w3.org/1999/xlink" x="0px" y="0px"
	 viewBox="0 0 512 512" style="enable-background:new 0 0 512 512;" xml:space="preserve">
<style type="text/css">
	.st0{opacity:5.000000e-02;fill:#9266F2;enable-background:new    ;}
	.st1{fill:#D0D4D8;}
	.st2{fill:#9266F2;}
</style>
<title>JADWAL</title>
<path class="st0" d="M355.8,66.4c-19.9,7.1-116.6-0.8-137-6.3c-47-12.6-173,60.8-122.7,145.8c82.3,139.1-145,183.5,37.1,237.5
	s109.8-67.2,261.4-20.9c145.5,44.5,5.1-118.1,36-196.1C450.8,175.3,388,55,355.8,66.4z"/>
<path class="st1" d="M354.7,198.4H157.3c-4.2,0-7.6-3.4-7.6-7.6v-41.3c0-4.2,3.4-7.6,7.6-7.6l0,0h197.5c4.2,0,7.6,3.4,7.6,7.6l0,0
	v41.3C362.3,195,358.9,198.4,354.7,198.4z M162.7,185.3h186.5v-26.2c0-2.3-1.8-4.2-4.1-4.2l0,0H166.9c-2.3,0-4.2,1.9-4.2,4.1l0,0
	V185.3z"/>
<path class="st2" d="M181.7,168.4c-3.6,0-6.5-2.9-6.5-6.5v-26.1c0.1-3.6,3.2-6.4,6.8-6.3c3.4,0.1,6.1,2.9,6.3,6.3v26.1
	C188.2,165.4,185.3,168.4,181.7,168.4L181.7,168.4z"/>
<path class="st2" d="M218.8,168.4c-3.6,0-6.5-2.9-6.5-6.5l0,0v-26.1c0.1-3.6,3.2-6.4,6.8-6.3c3.4,0.1,6.1,2.9,6.3,6.3v26.1
	C225.4,165.4,222.5,168.4,218.8,168.4L218.8,168.4z"/>
<path class="st2" d="M256,168.4c-3.6,0-6.5-2.9-6.5-6.5l0,0v-26.1c0-3.6,2.9-6.5,6.5-6.5s6.5,2.9,6.5,6.5l0,0v26.1
	C262.5,165.4,259.6,168.3,256,168.4L256,168.4z"/>
<path class="st2" d="M293.2,168.4c-3.6,0-6.5-2.9-6.5-6.5l0,0v-26.1c0.1-3.6,3.2-6.4,6.8-6.3c3.4,0.1,6.1,2.9,6.3,6.3v26.1
	C299.7,165.4,296.8,168.3,293.2,168.4L293.2,168.4z"/>
<path class="st2" d="M330.3,168.4c-3.6,0-6.5-2.9-6.5-6.5l0,0v-26.1c0.1-3.6,3.2-6.4,6.8-6.3c3.4,0.1,6.1,2.9,6.3,6.3v26.1
	C336.9,165.4,333.9,168.3,330.3,168.4z"/>
<path class="st2" d="M255.4,300.2L229.9,275c-3.2-3.2-3.3-8.4-0.1-11.7l0,0c3.2-3.2,8.4-3.3,11.7-0.1l0,0l14.2,14
	c3.2,3.1,8.2,3.2,11.5,0.1l33-31.4c3.3-3.1,8.5-3,11.7,0.3l0,0c3.1,3.3,3,8.5-0.3,11.7l-44.5,42.5
	C263.7,303.4,258.6,303.3,255.4,300.2z"/>
<path class="st1" d="M298.9,294v21.1c0,3.3-2.4,6-5.3,6h-75.2c-2.9,0-5.3-2.7-5.3-6v-62.3c0-3.3,2.4-6,5.3-6h38.2
	c2.9,0,5.3-2.7,5.3-6v-5.1c0-3.3-2.4-6-5.3-6h-53.3c-2.9,0-5.3,2.7-5.3,6v96.5c0,3.3,2.4,6,5.3,6h105.4c2.9,0,5.3-2.7,5.3-6V294
	c0-3.3-2.4-6-5.3-6h-4.5C301.3,288,298.9,290.7,298.9,294z"/>
<path class="st1" d="M342.7,237.9v127.2c0,2.4-1.9,4.3-4.3,4.3H173.6c-2.4,0-4.3-1.9-4.3-4.3V202.4c0-2.4,1.9-4.3,4.3-4.3h177.9
	c2.4,0,4.3-1.9,4.3-4.3v-4.4c0-2.4-1.9-4.3-4.3-4.3h-191c-2.4,0-4.3,1.9-4.3,4.3v189.2c0,2.4,1.9,4.3,4.3,4.3h191
	c2.4,0,4.3-1.9,4.3-4.3V237.9c0-2.4-1.9-4.3-4.3-4.3H347C344.7,233.6,342.7,235.5,342.7,237.9z"/>
</svg>
