<?xml version="1.0" encoding="utf-8"?>
<!-- Generator: Adobe Illustrator 22.0.1, SVG Export Plug-In . SVG Version: 6.00 Build 0)  -->
<svg version="1.1" id="Layer_1" xmlns="http://www.w3.org/2000/svg" xmlns:xlink="http://www.w3.org/1999/xlink" x="0px" y="0px"
	 viewBox="0 0 512 512" style="enable-background:new 0 0 512 512;" xml:space="preserve">
<style type="text/css">
	.st0{opacity:7.000000e-02;fill:#21D4FD;enable-background:new    ;}
	.st1{fill:#21D4FD;}
	.st2{fill:#D0D4D8;}
</style>
<path class="st0" d="M292.2,49.7c-19.9,7.1-41.5,7.9-61.9,2.4c-43.7-11.7-120.6-19.9-145.9,56.5c-3.2,9.8-3.9,20.3-2,30.4
	c18.8,98.8-90.7,160,30.9,296.8c78.8,88.6,177-14.5,330-55.9c64.8-17.5-126.7-220.5-95.9-298.5C367.8,30.3,324.4,38.2,292.2,49.7z"
	/>
<g>
	<g>
		<path class="st1" d="M271.3,237c-2.7-1.5-6.1-0.6-7.6,2c-1.6,2.8-4.5,4.5-7.7,4.5c-3.2,0-6.1-1.7-7.7-4.5c-1.5-2.7-4.9-3.6-7.6-2
			c-2.7,1.5-3.6,4.9-2,7.6c3.6,6.2,10.2,10,17.3,10c7.1,0,13.8-3.8,17.3-10C274.9,242,273.9,238.6,271.3,237z"/>
	</g>
</g>
<g>
	<g>
		<path class="st2" d="M303.6,213.2c-3.1,0-5.6,2.5-5.6,5.6v8.5c0,3.1,2.5,5.6,5.6,5.6c3.1,0,5.6-2.5,5.6-5.6v-8.5
			C309.1,215.7,306.6,213.2,303.6,213.2z"/>
	</g>
</g>
<g>
	<g>
		<path class="st2" d="M208.4,213.2c-3.1,0-5.6,2.5-5.6,5.6v8.5c0,3.1,2.5,5.6,5.6,5.6c3.1,0,5.6-2.5,5.6-5.6v-8.5
			C214,215.7,211.5,213.2,208.4,213.2z"/>
	</g>
</g>
<g>
	<g>
		<path class="st1" d="M307.8,237.7h-8.5c-3.1,0-5.6,2.5-5.6,5.6c0,3.1,2.5,5.6,5.6,5.6h8.5c3.1,0,5.6-2.5,5.6-5.6
			C313.3,240.2,310.9,237.7,307.8,237.7z"/>
	</g>
</g>
<g>
	<g>
		<path class="st1" d="M212.7,237.7h-8.5c-3.1,0-5.6,2.5-5.6,5.6c0,3.1,2.5,5.6,5.6,5.6h8.5c3.1,0,5.6-2.5,5.6-5.6
			C218.2,240.2,215.8,237.7,212.7,237.7z"/>
	</g>
</g>
<g>
	<g>
		<path class="st2" d="M400.1,196.6c-3-29.8-15-57.6-34.9-80.3c-2-2.3-5.5-2.6-7.8-0.5c-2.3,2-2.6,5.5-0.5,7.8
			c17.5,20.1,28.4,44.4,31.8,70.5c-20.7,1-94.4,0.7-128-50.5c-1-1.6-2.8-2.5-4.6-2.5c-1.9,0-3.6,0.9-4.6,2.5
			c-16.3,24.8-43.5,40.8-81,47.5c-20.3,3.6-38.3,3.4-47,3c8.5-65.8,65.7-116.5,132.6-116.5c31.9,0,62.7,11.4,86.9,32.2
			c2.3,2,5.8,1.7,7.8-0.6c2-2.3,1.7-5.8-0.6-7.8C324,78.8,290.5,66.5,256,66.5c-36.4,0-71.3,13.6-98.1,38.4
			c-26.1,24.1-42.4,56.6-46,91.8c-5.7,5.8-9,13.6-9,21.8c0,14.8,10.4,27.4,24.7,30.3c7.6,25.9,22.8,48.5,43,65.4
			c-12.2,0.2-22,10.2-22,22.5v44.1c-9.8,17.8-15.2,38-15.2,59.3c0,3.1,2.5,5.6,5.6,5.6h95.6c0,0,0,0,0,0c0,0,0,0,0,0h42.1
			c0,0,0,0,0,0c0,0,0,0,0,0h96.4c3.1,0,5.6-2.5,5.6-5.6c0-21.2-5.4-41.5-15.2-59.3v-44.1c0-12.2-9.9-22.2-22-22.5
			c20.2-16.8,35.4-39.5,43-65.4c14.3-2.9,24.7-15.5,24.7-30.3C409.1,210.2,405.8,202.4,400.1,196.6z M114,218.4
			c0-5,1.9-9.8,5.3-13.4c0.9,0.1,1.9,0.1,3.1,0.2c-0.1,2-0.1,4.1-0.1,6.1c0,8.4,0.8,16.7,2.3,24.7C118.2,232.6,114,226,114,218.4z
			 M171,325.2h15c3.9,2.4,7.9,4.6,12.1,6.6c-15.1,8.1-28.1,19.1-38.4,32.2v-27.4h0C159.6,330.3,164.7,325.2,171,325.2z M176.4,434.4
			h-31.8c1.4-27.8,13-53.5,31.8-72.7L176.4,434.4L176.4,434.4z M209,356c0,0.1,0,0.2,0,0.2v78.2h-21.5v-82.5
			c6.6-5.1,13.7-9.5,21.5-13.1V356z M230,434.4h-10v-69.9c3.9,1.5,8.7,3,14.5,4.1c0.7,1.4,1.6,2.7,2.8,3.9l5.3,5.3L230,434.4z
			 M237.4,351.6c-1.6,1.6-2.8,3.6-3.5,5.6c-6-1.4-10.7-3.2-13.8-4.6v-12.5c7.8,2.2,16,3.7,24.3,4.4L237.4,351.6z M245.2,359.4
			l8.1-8.1c0.7-0.7,1.6-1.1,2.6-1.1c1,0,1.9,0.4,2.6,1.1l8.1,8.1c1.5,1.5,1.5,3.8,0,5.3l-8.1,8.1c-0.7,0.7-1.6,1.1-2.6,1.1
			s-1.9-0.4-2.6-1.1l-8.1-8.1C243.7,363.3,243.7,360.9,245.2,359.4z M241.4,434.4L241.4,434.4l11.1-49.8c1.1,0.3,2.3,0.4,3.5,0.4
			c0.9,0,1.8-0.1,2.7-0.3l11,49.6H241.4z M281.1,434.4l-12.4-55.9l6-6c1.2-1.2,2.1-2.5,2.8-3.9c5.8-1.2,10.6-2.7,14.5-4.1v69.9
			H281.1z M291.9,352.6L291.9,352.6c-3.1,1.4-7.7,3.1-13.8,4.6c-0.7-2-1.9-4-3.5-5.6l-7.1-7.1c8.4-0.7,16.5-2.2,24.3-4.4
			L291.9,352.6L291.9,352.6z M324.5,434.4H303v-95.6c7.7,3.6,14.9,8,21.5,13.1V434.4z M367.4,434.4h-31.8v-72.7
			C354.5,380.9,366.1,406.6,367.4,434.4z M352.4,336.6V364c-10.3-13.1-23.3-24.1-38.4-32.2c4.1-2,8.2-4.2,12.1-6.6h15
			C347.3,325.2,352.4,330.3,352.4,336.6z M256,333.9c-67.6,0-122.6-55-122.6-122.6c0-1.9,0.1-3.9,0.1-5.8c10,0,23.6-0.7,38.5-3.4
			c36.9-6.5,65.7-22.4,84-45.9c18.3,23.5,47.1,39.3,84,45.9c15,2.7,28.5,3.3,38.5,3.4c0.1,1.9,0.1,3.9,0.1,5.8
			C378.6,278.9,323.6,333.9,256,333.9z M387.4,236c1.5-8,2.3-16.3,2.3-24.7c0-2-0.1-4.1-0.1-6.1c1.2-0.1,2.3-0.1,3.1-0.2
			c3.4,3.6,5.3,8.4,5.3,13.4C398,226,393.8,232.6,387.4,236z"/>
	</g>
</g>
<path class="st1" d="M283.5,434.4h-2.4l-12.4-55.9l6-6c1.2-1.2,2.1-2.5,2.8-3.9c1.5-2.1,1.3-9.9,0.7-11.5c-0.7-2-1.9-4-3.5-5.6
	l-7.1-7.1c-3,0.7-16.5,1.4-23.2,0l-7.1,7.1c-1.6,1.6-2.8,3.6-3.5,5.6c-0.6,1.1,0.1,10.2,0.7,11.5c0.7,1.4,1.6,2.7,2.8,3.9l5.3,5.3
	L230,434.4l11.4,0v0l11.1-49.8c1.1,0.3,2.3,0.4,3.5,0.4c0.9,0,1.8-0.1,2.7-0.3l11,49.6L283.5,434.4L283.5,434.4z M266.8,364.7
	l-8.1,8.1c-0.7,0.7-1.6,1.1-2.6,1.1s-1.9-0.4-2.6-1.1l-8.1-8.1c-1.5-1.5-1.5-3.8,0-5.3l8.1-8.1c0.7-0.7,1.6-1.1,2.6-1.1
	s1.9,0.4,2.6,1.1l8.1,8.1C268.3,360.9,268.3,363.3,266.8,364.7z"/>
<path class="st1" d="M256,77.6c31.9,0,62.7,11.4,86.9,32.2c2.3,2,5.8,1.7,7.8-0.6c2-2.3,1.7-5.8-0.6-7.8
	C324,78.8,290.5,66.5,256,66.5c-36.4,0-71.3,13.6-98.1,38.4c-26.1,24.1-42.4,56.6-46,91.8l11.5-2.5C131.9,128.3,189.1,77.6,256,77.6
	z"/>
</svg>
