<?xml version="1.0" encoding="utf-8"?>
<!-- Generator: Adobe Illustrator 22.0.1, SVG Export Plug-In . SVG Version: 6.00 Build 0)  -->
<svg version="1.1" id="Layer_1" xmlns="http://www.w3.org/2000/svg" xmlns:xlink="http://www.w3.org/1999/xlink" x="0px" y="0px"
	 viewBox="0 0 512 512" style="enable-background:new 0 0 512 512;" xml:space="preserve">
<style type="text/css">
	.st0{opacity:0.1;fill:#21D4FD;enable-background:new    ;}
	.st1{fill:#21D4FD;}
	.st2{fill:#D0D4D8;}
</style>
<title>SEKOLAH</title>
<path class="st0" d="M312,57.2c-19.9,7.1-41.5,7.9-61.9,2.4C203,47,117.4,38.4,99.3,135.5C74.2,271-49,389.4,133.2,443.4
	s177-14.5,330-55.9C528,370,336.5,167,367.3,89C387.6,37.8,344.2,45.7,312,57.2z"/>
<polygon class="st1" points="250.1,27.7 250.1,105.2 261.9,105.2 261.9,39.4 304.4,39.4 304.4,61.3 269.9,61.3 269.9,73 316.1,73 
	316.1,27.7 "/>
<path class="st2" d="M201.7,319.2h108.6c1.3,0,2.3,1,2.3,2.3v7c0,1.3-1,2.3-2.3,2.3H201.7c-1.3,0-2.3-1-2.3-2.3v-7
	C199.4,320.3,200.4,319.2,201.7,319.2z"/>
<path class="st2" d="M219.3,294h11.3c1.3,0,2.4,1.1,2.4,2.4v7c0,1.3-1.1,2.4-2.4,2.4h-11.3c-1.3,0-2.4-1.1-2.4-2.4v-7
	C216.9,295.1,218,294,219.3,294z"/>
<path class="st1" d="M250.3,294h11.3c1.3,0,2.4,1.1,2.4,2.4v7c0,1.3-1.1,2.4-2.4,2.4h-11.3c-1.3,0-2.4-1.1-2.4-2.4v-7
	C248,295.1,249,294,250.3,294z"/>
<path class="st2" d="M281.4,294h11.3c1.3,0,2.4,1.1,2.4,2.4v7c0,1.3-1.1,2.4-2.4,2.4h-11.3c-1.3,0-2.4-1.1-2.4-2.4v-7
	C279,295.1,280.1,294,281.4,294z"/>
<path class="st2" d="M256,253c-22.8,0-41.2-18.5-41.2-41.2c0-22.8,18.5-41.2,41.2-41.2c22.8,0,41.2,18.5,41.2,41.2c0,0,0,0,0,0
	C297.2,234.5,278.8,253,256,253z M256,182.3c-16.3,0-29.5,13.2-29.5,29.5c0,16.3,13.2,29.5,29.5,29.5c16.3,0,29.5-13.2,29.5-29.5
	l0,0C285.5,195.5,272.3,182.3,256,182.3L256,182.3z"/>
<path class="st2" d="M21.9,443.6h468.3c1.3,0,2.4,1.1,2.4,2.4v7.3c0,1.3-1.1,2.4-2.4,2.4H21.9c-1.3,0-2.4-1.1-2.4-2.4V446
	C19.5,444.7,20.5,443.6,21.9,443.6z"/>
<path class="st2" d="M168.2,472.6h175.6c1.3,0,2.3,1,2.3,2.3v7c0,1.3-1,2.3-2.3,2.3H168.2c-1.3,0-2.3-1-2.3-2.3v-7
	C165.8,473.7,166.9,472.6,168.2,472.6z"/>
<path class="st2" d="M60.5,337.9V444H48.7V337.9c0-1.3,1.1-2.4,2.4-2.4c0,0,0,0,0,0h6.9C59.4,335.5,60.5,336.6,60.5,337.9
	L60.5,337.9z"/>
<rect x="451.5" y="335.5" class="st2" width="11.7" height="108.5"/>
<path class="st2" d="M122.5,382.8H83.9c-1.3,0-2.4-1.1-2.4-2.4l0,0v-38.5c0-1.3,1.1-2.4,2.4-2.4c0,0,0,0,0,0h38.5
	c1.3,0,2.4,1.1,2.4,2.4l0,0v38.5C124.8,381.7,123.8,382.8,122.5,382.8z M95.6,371h15.1c1.3,0,2.4-1.1,2.4-2.4v-15.1
	c0-1.3-1.1-2.4-2.4-2.4H95.6c-1.3,0-2.4,1.1-2.4,2.4l0,0v15.1C93.3,370,94.3,371,95.6,371z"/>
<path class="st2" d="M428.1,434.3h-38.5c-1.3,0-2.4-1.1-2.4-2.4v0v-38.5c0-1.3,1.1-2.4,2.4-2.4h0h38.5c1.3,0,2.4,1.1,2.4,2.4v0v38.5
	C430.5,433.2,429.4,434.3,428.1,434.3C428.1,434.3,428.1,434.3,428.1,434.3z M401.3,422.6h15.1c1.3,0,2.4-1.1,2.4-2.4v0V405
	c0-1.3-1.1-2.4-2.4-2.4h0h-15.1c-1.3,0-2.4,1.1-2.4,2.4v15.1C398.9,421.5,399.9,422.6,401.3,422.6z"/>
<path class="st2" d="M153.9,311.3H49.7c-1.3,0-2.3-1.1-2.3-2.4c0-0.4,0.1-0.8,0.3-1.1l27.2-47.1H154V249H68.1l-40.7,70.5
	c-0.6,1.1-0.3,2.6,0.9,3.2c0.3,0.2,0.7,0.3,1.1,0.3h124.6V311.3z"/>
<path class="st2" d="M358.1,260.7h79.1l27.1,47c0.7,1.2,0.3,2.7-0.9,3.4c-0.4,0.2-0.8,0.3-1.2,0.3H358.1V323h124.4
	c1.4,0,2.5-1.1,2.5-2.5c0-0.4-0.1-0.9-0.3-1.2L443.9,249h-85.9V260.7z"/>
<polygon class="st2" points="334.5,205.9 334.5,217.6 334.5,217.6 334.5,444 177.6,444 177.6,217.6 177.6,217.6 177.6,205.9 
	165.8,205.9 165.8,455.7 346.2,455.7 346.2,205.9 "/>
<path class="st2" d="M204.5,205.9h-44.1c-0.7,0-1.2-0.6-1.2-1.2c0-0.3,0.1-0.6,0.4-0.9l94.8-94.6c0.9-0.9,2.4-0.9,3.3,0l94.8,94.6
	c0.5,0.5,0.5,1.3,0,1.7c-0.2,0.2-0.5,0.3-0.9,0.4h-44.1c-1.3,0-2.4,1.1-2.4,2.4v0v6.9c0,1.3,1.1,2.4,2.4,2.4l0,0h72.4
	c0.7,0,1.2-0.5,1.2-1.2c0-0.3-0.1-0.6-0.4-0.9L257.6,92.8c-0.9-0.9-2.4-0.9-3.3,0L131.2,215.6c-0.5,0.5-0.5,1.2,0,1.7
	c0.2,0.2,0.6,0.4,0.9,0.4h72.4c1.3,0,2.4-1.1,2.4-2.4v-6.9C206.9,207,205.8,205.9,204.5,205.9z"/>
<path class="st2" d="M201.7,268.8h108.6c1.3,0,2.3,1,2.3,2.3v7c0,1.3-1,2.3-2.3,2.3H201.7c-1.3,0-2.3-1-2.3-2.3v-7
	C199.4,269.8,200.4,268.8,201.7,268.8z"/>
<path class="st1" d="M299.6,455.4h-87.2V383c0-18.6,15.1-33.6,33.7-33.7h19.8c18.6,0,33.6,15.1,33.7,33.7L299.6,455.4z M224.1,443.6
	h63.7V383c0-12.1-9.8-22-22-22h-19.8c-12.2,0-22,9.8-22,22L224.1,443.6z"/>
<path class="st1" d="M389.5,339.4h38.5c1.3,0,2.4,1.1,2.4,2.4v38.5c0,1.3-1.1,2.4-2.4,2.4h-38.5c-1.3,0-2.4-1.1-2.4-2.4v-38.5
	C387.1,340.5,388.2,339.4,389.5,339.4z"/>
<path class="st1" d="M83.9,391h38.5c1.3,0,2.4,1.1,2.4,2.4v38.5c0,1.3-1.1,2.4-2.4,2.4H83.9c-1.3,0-2.4-1.1-2.4-2.4v-38.5
	C81.5,392,82.6,391,83.9,391z"/>
</svg>
