<?xml version="1.0" encoding="utf-8"?>
<!-- Generator: Adobe Illustrator 22.0.1, SVG Export Plug-In . SVG Version: 6.00 Build 0)  -->
<svg version="1.1" id="_x33_0" xmlns="http://www.w3.org/2000/svg" xmlns:xlink="http://www.w3.org/1999/xlink" x="0px" y="0px"
	 viewBox="0 0 512 512" style="enable-background:new 0 0 512 512;" xml:space="preserve">
<style type="text/css">
	.st0{fill:#FFFFFF;}
</style>
<g>
	<path class="st0" d="M312,216v-32c-8.8,0-16,7.2-16,16S303.2,216,312,216z"/>
	<path class="st0" d="M118.9,356.9l7-11.7l-12.8-12.8L106,336L118.9,356.9z"/>
	<path class="st0" d="M296,156.8c0,4.9,0.8,9.8,2,14.6c4.3-2.1,9-3.4,14-3.4h2.7c2.5-4.9,6.6-8.8,11.8-11.1l41.6-18.1V96h-11.2
		C323.3,96,296,123.3,296,156.8L296,156.8z"/>
	<path class="st0" d="M155.2,96H144v42.7l41.5,17.8c5.4,2.3,9.6,6.5,12.1,11.5h2.5c5.1,0,9.8,1.3,14,3.4c1.2-4.8,2-9.6,2-14.6
		C216,123.3,188.7,96,155.2,96z"/>
	<path class="st0" d="M92.8,171.5c-2.9,1.3-4.8,4.2-4.8,7.3V216c0,26.5,21.5,48,48,48s48-21.5,48-48v-37.4c0-3.2-1.9-6.1-4.8-7.4
		L136,152.7L92.8,171.5z M152,222.1l0.8-1.7l14.3,7.2l-0.8,1.7c-5.8,11.6-17.4,18.7-30.3,18.7s-24.5-7.2-30.3-18.7l-0.8-1.7
		l14.3-7.2l0.8,1.7c3,6.1,9.2,9.9,16,9.9S149,228.2,152,222.1z"/>
	<path class="st0" d="M200,184v32c8.8,0,16-7.2,16-16S208.8,184,200,184z"/>
	<path class="st0" d="M393.1,356.9l12.9-21l-7.1-3.6l-12.8,12.8L393.1,356.9z"/>
	<path class="st0" d="M358.9,356.9l7-11.7l-12.8-12.8L346,336L358.9,356.9z"/>
	<path class="st0" d="M440,184v32c8.8,0,16-7.2,16-16S448.8,184,440,184z"/>
	<path class="st0" d="M395.2,96H384v42.7l41.5,17.8c5.4,2.3,9.6,6.5,12.1,11.5h2.5c5.1,0,9.8,1.3,14,3.4c1.2-4.8,2-9.6,2-14.6
		C456,123.3,428.7,96,395.2,96L395.2,96z"/>
	<path class="st0" d="M328.3,307.3l9.2,15l20.6-10.3l-15.2-7.6L328.3,307.3z"/>
	<path class="st0" d="M423.7,307.3l-14.5-2.9l-15.2,7.6l20.6,10.3L423.7,307.3z"/>
	<path class="st0" d="M395,277.1c-6,1.9-12.4,2.9-19,2.9s-13-1-19-2.9l-3.6,14.6l22.7,11.3l22.7-11.3L395,277.1z"/>
	<path class="st0" d="M332.8,171.5c-2.9,1.3-4.8,4.2-4.8,7.3V216c0,26.5,21.5,48,48,48s48-21.5,48-48v-37.4c0-3.2-1.9-6.1-4.8-7.4
		L376,152.7L332.8,171.5z M392,222.1l0.8-1.7l14.3,7.2l-0.8,1.7c-5.8,11.6-17.4,18.7-30.3,18.7s-24.5-7.2-30.3-18.7l-0.8-1.7
		l14.3-7.2l0.8,1.7c3,6.1,9.2,9.9,16,9.9S389,228.2,392,222.1z"/>
	<path class="st0" d="M264,378.1V416h104v-13.7l-56-91c-5.8,2-11.3,4.6-16.5,8C275.8,332.4,264,354.4,264,378.1z"/>
	<path class="st0" d="M128.4,372.3l7.6,12.4l7.6-12.4l-7.6-12.8L128.4,372.3z"/>
	<path class="st0" d="M136,320.9l-7.8,3.9l7.8,7.8l7.8-7.8L136,320.9z"/>
	<path class="st0" d="M248,378.1c0-23.7-11.8-45.7-31.5-58.8c-5.2-3.4-10.7-6.1-16.5-8l-56,91V416h104V378.1z"/>
	<path class="st0" d="M488,378.1c0-23.7-11.8-45.7-31.5-58.8c-5.2-3.4-10.7-6.1-16.5-8l-56,91V416h104V378.1z"/>
	<path class="st0" d="M368.4,372.3l7.6,12.4l7.6-12.4l-7.6-12.8L368.4,372.3z"/>
	<path class="st0" d="M376,320.9l-7.8,3.9l7.8,7.8l7.8-7.8L376,320.9z"/>
	<path class="st0" d="M24,378.1V416h104v-13.7l-56-91c-5.8,2-11.3,4.6-16.5,8C35.8,332.4,24,354.4,24,378.1z"/>
	<path class="st0" d="M153.1,356.9l12.9-21l-7.1-3.6l-12.8,12.8L153.1,356.9z"/>
	<path class="st0" d="M88.3,307.3l9.2,15l20.6-10.3l-15.2-7.6L88.3,307.3z"/>
	<path class="st0" d="M155,277.1c-6,1.9-12.4,2.9-19,2.9s-13-1-19-2.9l-3.6,14.6l22.7,11.3l22.7-11.3L155,277.1z"/>
	<path class="st0" d="M183.7,307.3l-14.5-2.9l-15.2,7.6l20.6,10.3L183.7,307.3z"/>
	<path class="st0" d="M56,156.8c0,4.9,0.8,9.8,2,14.6c4.3-2.1,9-3.4,14-3.4h2.7c2.5-4.9,6.6-8.8,11.8-11.1l41.6-18.1V96h-11.2
		C83.3,96,56,123.3,56,156.8L56,156.8z"/>
	<path class="st0" d="M72,216v-32c-8.8,0-16,7.2-16,16S63.2,216,72,216z"/>
	<path class="st0" d="M488,456H96v-36.9L6.1,464L96,508.9V472h408v-48h-16V456z"/>
	<path class="st0" d="M24,56h392v36.9L505.9,48L416,3.1V40H8v48h16V56z"/>
</g>
</svg>
