<?xml version="1.0" encoding="utf-8"?>
<!-- Generator: Adobe Illustrator 22.0.1, SVG Export Plug-In . SVG Version: 6.00 Build 0)  -->
<svg version="1.1" id="_x33_0" xmlns="http://www.w3.org/2000/svg" xmlns:xlink="http://www.w3.org/1999/xlink" x="0px" y="0px"
	 viewBox="0 0 512 512" style="enable-background:new 0 0 512 512;" xml:space="preserve">
<style type="text/css">
	.st0{fill:#FFFFFF;}
</style>
<g>
	<path class="st0" d="M280,432h-8v-58.4c-5.1,1.5-10.4,2.4-16,2.4s-10.9-0.8-16-2.4V432h-8c-4.4,0-8,3.6-8,8v16c0,4.4,3.6,8,8,8h48
		c4.4,0,8-3.6,8-8v-16C288,435.6,284.4,432,280,432z"/>
	<path class="st0" d="M168,288v38.4c0,0.5,0.1,1.1,0.1,1.6H168v32h16c8.8,0,16-7.2,16-16c0-8.8-7.1-15.9-15.8-16
		c0-0.5-0.2-1.1-0.2-1.6V288c0-4.4,3.6-8,8-8h8v-16h-8C178.8,264,168,274.8,168,288z"/>
	<path class="st0" d="M168,128V88h-40c-9.8,0-18.2-5.9-21.9-14.3C95.4,76.4,88,86,88,97v31c0,22.1,17.9,40,40,40S168,150.1,168,128z
		 M128,152c-13.2,0-24-10.8-24-24h16c0,4.4,3.6,8,8,8c4.4,0,8-3.6,8-8h16C152,141.2,141.2,152,128,152z"/>
	<path class="st0" d="M139.8,272L128,244.3L116.2,272l11.8,27.7L139.8,272z"/>
	<path class="st0" d="M109.6,180.8l-4.6,22.8l23,11.5l23-11.5l-4.6-22.8c-5.8,2-12,3.2-18.4,3.2S115.4,182.8,109.6,180.8
		L109.6,180.8z"/>
	<path class="st0" d="M161.1,216.4l-22.8,11.4l10.2,23.8l14.9-34.8L161.1,216.4z"/>
	<path class="st0" d="M117.7,227.8l-22.8-11.4l-2.3,0.5l14.9,34.8L117.7,227.8z"/>
	<path class="st0" d="M406.1,248h-44.2l22.1,51.7L406.1,248z"/>
	<path class="st0" d="M198.3,77.2c-4.2,3.4-9,6.1-14.3,8V88c4.1,0,8,0.8,11.6,2.3C196.7,85.9,197.6,81.6,198.3,77.2L198.3,77.2z"/>
	<path class="st0" d="M385.4,168c21.3,0,38.6-17.3,38.6-38.6v-12.2c0-8.1-6-14.9-14-15.9l-24.4-3c-12.9-1.6-23-11.6-25.2-24.1
		C350.7,77.4,344,86.6,344,97v31c0,22.1,18,40,40.2,40H385.4z M360,128h16c0,4.4,3.6,8,8,8s8-3.6,8-8h16c0,13.2-10.8,24-24,24
		S360,141.2,360,128z"/>
	<path class="st0" d="M72,136h0.6c-0.4-2.6-0.6-5.3-0.6-8v-24c-8.8,0-16,7.2-16,16S63.2,136,72,136z"/>
	<path class="st0" d="M334.7,203.3c6.4-1.3,11.3-6.2,12.6-12.6l3.6-17.8C337,162.8,328,146.4,328,128V97c0-18.4,12.5-34.3,30.3-38.8
		l4.3-1.1C367.3,47,377.5,40,389.2,40h2.8v16h-2.8c-7.3,0-13.2,5.9-13.2,13.2c0,6.7,5,12.3,11.6,13.2l24.4,3c16,2,28,15.6,28,31.7
		v12.2c0,18.2-9,34.3-22.7,44.2l3.4,17.1c1.3,6.4,6.2,11.3,12.6,12.6l10.8,2.2c7.8-18,12-37.6,12-57.2V96c0-39.7-32.3-72-72-72
		s-72,32.3-72,72v52.2c0,19.6,4.1,39.2,12,57.2L334.7,203.3z"/>
	<path class="st0" d="M420.2,215.1c-7.7-4.5-13.3-12.1-15.1-21.2l-2.5-12.6c-5.4,1.8-11.1,2.8-17.1,2.8h-1.2
		c-6.5,0-12.8-1.2-18.6-3.2l-2.6,13.1c-1.8,9.1-7.4,16.7-15.1,21.2l7.2,16.9h57.9L420.2,215.1z"/>
	<path class="st0" d="M184,128c0,2.7-0.3,5.4-0.6,8h0.6c8.8,0,16-7.2,16-16s-7.2-16-16-16V128z"/>
	<path class="st0" d="M59.9,90.4C63.6,88.9,67.7,88,72,88h1.1c3.3-14.4,14.3-26.1,29.2-29.8l2.7-0.7c2.9-10.1,12-17.5,23-17.5h8v16
		h-8c-4.4,0-8,3.6-8,8s3.6,8,8,8h40c17.6,0,32-14.4,32-32v-8c0-4.4-3.6-8-8-8h-88.9C77.1,24,56,45.1,56,71.1
		c0,5.1,0.8,10.1,2.4,14.9L59.9,90.4z"/>
	<path class="st0" d="M350.9,262.9L332.6,220l-14,2.8c-14.4,2.9-26.5,12.4-33.2,25.2h2.6h8h24C332.5,248,343.5,253.9,350.9,262.9z"
		/>
	<path class="st0" d="M371.9,312l-12.4-28.9c0.2,1.6,0.5,3.2,0.5,4.9v24H371.9z"/>
	<path class="st0" d="M152,328H67.3l-13.7,13.7l-11.3-11.3L56,316.7V280h16v32h43.9l-39.3-92l-14,2.8C40.2,227.3,24,247.1,24,269.9
		V328c0,17.6,14.4,32,32,32h96V328z"/>
	<path class="st0" d="M152,312v-24c0-1.7,0.3-3.3,0.5-4.9L140.1,312H152z"/>
	<path class="st0" d="M179.4,220l-18.3,42.8c7.3-9,18.4-14.9,30.9-14.9h24h8h2.6c-6.6-12.8-18.7-22.3-33.2-25.2L179.4,220z"/>
	<path class="st0" d="M216,320c0,22.1,17.9,40,40,40s40-17.9,40-40v-56h-80V320z"/>
	<path class="st0" d="M449.4,222.8l-14-2.8l-39.3,92h38.5c2.1-5.9,5.4-17.3,5.4-32h16c0,5.8-0.5,11.1-1.2,16H488v-26.1
		C488,247.1,471.8,227.3,449.4,222.8L449.4,222.8z"/>
	<path class="st0" d="M449.8,316.9l18.6,12.4l-8.9,13.3l-22-14.7h-93.7c0-0.5,0.1-1.1,0.1-1.6V288c0-13.2-10.8-24-24-24h-8v16h8
		c4.4,0,8,3.6,8,8v38.4c0,0.5-0.1,1.1-0.2,1.6c-8.8,0.1-15.8,7.2-15.8,16c0,8.8,7.2,16,16,16h128c17.6,0,32-14.4,32-32v-16h-36.6
		C450.9,313.9,450.4,315.5,449.8,316.9L449.8,316.9z"/>
	<path class="st0" d="M341.1,376c-8.6,18.7-13.1,39.2-13.1,59.8V488h112v-52.2c0-20.5-4.6-41.1-13.1-59.8H341.1z"/>
	<path class="st0" d="M72,424h48v64H72V424z"/>
	<path class="st0" d="M72,376h48v32H72V376z"/>
	<path class="st0" d="M136,376h48v32h-48V376z"/>
	<path class="st0" d="M136,424h48v64h-48V424z"/>
</g>
</svg>
