<?xml version="1.0" encoding="iso-8859-1"?>
<!-- Generator: Adobe Illustrator 19.0.0, SVG Export Plug-In . SVG Version: 6.00 Build 0)  -->
<svg version="1.1" id="Capa_1" xmlns="http://www.w3.org/2000/svg" xmlns:xlink="http://www.w3.org/1999/xlink" x="0px" y="0px"
	 viewBox="0 0 512 512" style="enable-background:new 0 0 512 512;" xml:space="preserve">
<path style="fill:#DE4C3C;" d="M377.494,269.017c0-19.17-15.542-34.712-34.712-34.712H169.223c-19.17,0-34.712,15.542-34.712,34.712
	v34.712h242.983V269.017z"/>
<path style="fill:#FEC9A3;" d="M308.07,269.017c-9.589,0-17.356-7.767-17.356-17.356v-43.39h-69.424v43.39
	c0,9.589-7.767,17.356-17.356,17.356h-8.678v69.424h121.492v-69.424H308.07z"/>
<path style="fill:#4398D1;" d="M308.07,269.017c0,28.759-23.309,52.068-52.068,52.068s-52.068-23.309-52.068-52.068h-69.424V512
	h242.983V269.017H308.07z"/>
<path style="fill:#F7BB8F;" d="M290.714,243.443v-26.494c-21.842,10.96-47.581,10.96-69.424,0v26.494
	C243.142,254.403,268.872,254.403,290.714,243.443z"/>
<g>
	<path style="fill:#4398D1;" d="M65.087,425.22l69.424-104.136v-52.068h-14.527c-17.955,0-34.642,9.242-44.162,24.472
		l-62.256,99.623c-17.764,28.429-9.112,65.874,19.308,83.63c9.65,6.031,20.792,9.225,32.161,9.225h43.442V425.22H65.087z"/>
	<path style="fill:#4398D1;" d="M498.439,393.112l-62.256-99.623c-9.52-15.23-26.207-24.472-44.162-24.472h-14.527v52.068
		l69.424,104.136h-43.39v60.746h43.442c33.523,0,60.694-27.179,60.694-60.694C507.663,413.896,504.47,402.753,498.439,393.112z"/>
</g>
<path style="fill:#75462E;" d="M166.22,112.814h173.559l0.668-2.89C351.59,61.622,321.469,13.442,273.176,2.3
	C266.563,0.772,259.795,0,253,0l0,0c-49.569,0-89.748,40.188-89.748,89.748c0,6.786,0.772,13.555,2.3,20.176L166.22,112.814z"/>
<g>
	<path style="fill:#F7BB8F;" d="M169.223,112.814h8.678l0,0v52.068l0,0h-8.678c-14.379,0-26.034-11.655-26.034-26.034l0,0
		C143.189,124.468,154.852,112.814,169.223,112.814z"/>
	<path style="fill:#F7BB8F;" d="M342.782,164.881h-8.678l0,0v-52.068l0,0h8.678c14.379,0,26.034,11.655,26.034,26.034l0,0
		C368.816,153.227,357.161,164.881,342.782,164.881z"/>
</g>
<path style="fill:#FEC9A3;" d="M177.901,86.78v69.424c0,43.138,34.964,78.102,78.102,78.102s78.102-34.964,78.102-78.102V86.78
	l-43.39-52.068L177.901,86.78z"/>
<g>
	<path style="fill:#75462E;" d="M166.22,112.814c0,0,89.782-8.678,124.494-52.068c7.871,23.743,25.826,42.808,49.065,52.068l0,0
		l0.668-2.89C351.59,61.622,321.469,13.442,273.176,2.3C266.563,0.772,259.795,0,253,0l0,0c-49.569,0-89.748,40.188-89.748,89.748
		c0,6.786,0.772,13.555,2.3,20.176L166.22,112.814z"/>
	<path style="fill:#75462E;" d="M212.613,156.203c-9.589,0-17.356-7.767-17.356-17.356s7.767-17.356,17.356-17.356
		c9.589,0,17.356,7.767,17.356,17.356S222.202,156.203,212.613,156.203z"/>
	<path style="fill:#75462E;" d="M299.392,156.203c-9.589,0-17.356-7.767-17.356-17.356s7.767-17.356,17.356-17.356
		s17.356,7.767,17.356,17.356S308.981,156.203,299.392,156.203z"/>
</g>
<path style="fill:#F0A789;" d="M256.002,198.83c-10.986-0.009-21.721-3.263-30.85-9.372l9.633-14.44
	c12.843,8.583,29.592,8.583,42.435,0l9.633,14.44C277.723,195.567,266.989,198.821,256.002,198.83z"/>
<path style="fill:#3B2317;" d="M290.714,69.424c-4.79,0-8.678-3.888-8.678-8.678v-43.39c0-4.79,3.888-8.678,8.678-8.678
	c4.79,0,8.678,3.888,8.678,8.678v43.39C299.392,65.536,295.513,69.424,290.714,69.424z"/>
<path style="fill:#3E8CC7;" d="M134.511,493.629V512h242.983V269.017h-17.66C311.238,415.883,193.408,473.496,134.511,493.629z"/>
<rect x="325.426" y="269.017" style="fill:#F46B27;" width="52.068" height="242.983"/>
<polygon style="fill:#FEC9A3;" points="377.494,381.831 377.494,425.22 316.748,425.22 316.748,485.966 403.528,485.966 
	403.528,425.22 "/>
<rect x="134.511" y="269.017" style="fill:#F46B27;" width="52.068" height="242.983"/>
<polygon style="fill:#FEC9A3;" points="134.511,425.22 134.511,381.831 108.477,425.22 108.477,485.966 195.257,485.966 
	195.257,425.22 "/>
<g>
</g>
<g>
</g>
<g>
</g>
<g>
</g>
<g>
</g>
<g>
</g>
<g>
</g>
<g>
</g>
<g>
</g>
<g>
</g>
<g>
</g>
<g>
</g>
<g>
</g>
<g>
</g>
<g>
</g>
</svg>
