<?xml version="1.0" encoding="utf-8"?>
<!-- Generator: Adobe Illustrator 22.0.1, SVG Export Plug-In . SVG Version: 6.00 Build 0)  -->
<svg version="1.1" id="Layer_1" xmlns="http://www.w3.org/2000/svg" xmlns:xlink="http://www.w3.org/1999/xlink" x="0px" y="0px"
	 viewBox="0 0 448 448" style="enable-background:new 0 0 448 448;" xml:space="preserve">
<style type="text/css">
	.st0{fill:#808B97;}
</style>
<path class="st0" d="M200,280h-40v16h128v-16H200z"/>
<path class="st0" d="M272,312h16v48h-16V312z"/>
<path class="st0" d="M272,400v24h16v-48h-16V400z"/>
<path class="st0" d="M208,240h32v24h-32V240z"/>
<path class="st0" d="M258.3,29.7c-2.8-2.8-6.4-4.6-10.3-5.3V50c5.1,1.7,9.8,4.5,13.7,8.3c3.6,3.6,8.5,5.6,13.7,5.7H288V40h-4.7
	C273.9,40,264.9,36.3,258.3,29.7z"/>
<path class="st0" d="M232,24h-16v64h16V24z"/>
<path class="st0" d="M224,208c-8.8,0-16,7.2-16,16h32C240,215.2,232.8,208,224,208z"/>
<path class="st0" d="M232,312h24v48h-24V312z"/>
<path class="st0" d="M160,132.7V264h32v-40c0-17.7,14.3-32,32-32s32,14.3,32,32v40h32V132.7l-64-35.6L160,132.7z M248,152
	c0,13.3-10.7,24-24,24s-24-10.7-24-24s10.7-24,24-24S248,138.7,248,152z"/>
<path class="st0" d="M304,408h144v16H304V408z"/>
<path class="st0" d="M232,152c0,4.4-3.6,8-8,8s-8-3.6-8-8s3.6-8,8-8S232,147.6,232,152z"/>
<path class="st0" d="M0,408h144v16H0V408z"/>
<path class="st0" d="M160,400v24h16v-48h-16V400z"/>
<path class="st0" d="M192,312h24v48h-24V312z"/>
<path class="st0" d="M435.1,136H304v16h139.1L435.1,136z"/>
<path class="st0" d="M4.9,152H144v-16H12.9L4.9,152z"/>
<path class="st0" d="M192,376h64v16h-64V376z"/>
<path class="st0" d="M160,312h16v48h-16V312z"/>
<path class="st0" d="M192,408h64v16h-64V408z"/>
<path class="st0" d="M0,392h144V168H0V392z M112,192h16v24h-16V192z M112,232h16v24h-16V232z M112,272h16v24h-16V272z M112,312h16
	v24h-16V312z M112,352h16v24h-16V352z M80,192h16v24H80V192z M80,232h16v24H80V232z M80,272h16v24H80V272z M80,312h16v24H80V312z
	 M80,352h16v24H80V352z M48,192h16v24H48V192z M48,232h16v24H48V232z M48,272h16v24H48V272z M48,312h16v24H48V312z M48,352h16v24H48
	V352z M16,192h16v24H16V192z M16,232h16v24H16V232z M16,272h16v24H16V272z M16,312h16v24H16V312z M16,352h16v24H16V352z"/>
<path class="st0" d="M304,168v224h144V168H304z M336,376h-16v-24h16V376z M336,336h-16v-24h16V336z M336,296h-16v-24h16V296z
	 M336,256h-16v-24h16V256z M336,216h-16v-24h16V216z M368,376h-16v-24h16V376z M368,336h-16v-24h16V336z M368,296h-16v-24h16V296z
	 M368,256h-16v-24h16V256z M368,216h-16v-24h16V216z M400,376h-16v-24h16V376z M400,336h-16v-24h16V336z M400,296h-16v-24h16V296z
	 M400,256h-16v-24h16V256z M400,216h-16v-24h16V216z M432,376h-16v-24h16V376z M432,336h-16v-24h16V336z M432,296h-16v-24h16V296z
	 M432,256h-16v-24h16V256z M432,216h-16v-24h16V216z"/>
</svg>
