<?xml version="1.0" encoding="utf-8"?>
<!-- Generator: Adobe Illustrator 22.0.1, SVG Export Plug-In . SVG Version: 6.00 Build 0)  -->
<svg version="1.1" id="_x33_0" xmlns="http://www.w3.org/2000/svg" xmlns:xlink="http://www.w3.org/1999/xlink" x="0px" y="0px"
	 viewBox="0 0 512 512" style="enable-background:new 0 0 512 512;" xml:space="preserve">
<style type="text/css">
	.st0{fill:#FFFFFF;}
</style>
<g>
	<path class="st0" d="M62.7,264h41.7c-0.2-2.7-0.4-5.3-0.4-8s0.2-5.3,0.4-8H62.7c-3.5-11.5-14.1-20-26.7-20c-15.4,0-28,12.6-28,28
		s12.6,28,28,28C48.6,284,59.2,275.5,62.7,264L62.7,264z"/>
	<path class="st0" d="M304,408c-3.5,0-6.9,0.4-10.1,1.1l-18-45c-4.8,2.3-9.7,4.4-14.8,6l18,45c-13.8,8.4-23,23.6-23,40.9
		c0,26.5,21.5,48,48,48s48-21.5,48-48S330.5,408,304,408z"/>
	<path class="st0" d="M289.5,155.5l30.4-54.3c5,1.8,10.4,2.8,16.1,2.8c26.5,0,48-21.5,48-48S362.5,8,336,8s-48,21.5-48,48
		c0,15.1,7,28.5,17.9,37.4l-30.4,54.4C280.3,150,285,152.6,289.5,155.5z"/>
	<path class="st0" d="M134.7,176.1c-3.2-11.4-12.6-20.3-24.4-22.7l-1.9-0.4l-15.5,31h35.3C130.3,181.3,132.4,178.6,134.7,176.1z"/>
	<path class="st0" d="M49.7,153.4C35.1,156.3,24.4,169.1,24,184h43l-15.5-31L49.7,153.4z"/>
	<path class="st0" d="M206.7,280l41.3-13.8V232h-80v111.5c9.7,6.2,20.5,10.9,32,13.6V328h-16v-16h16v-16h-16v-16H206.7z M216,248h16
		v16h-16V248z M184,248h16v16h-16V248z"/>
	<path class="st0" d="M41.3,129.5l9.2,3.7l2.1-8.2C44.8,117.6,40,107.4,40,96V81.9c0-9.1,5.1-17.4,13.3-21.5L80,47.1l26.7,13.4
		c8.2,4.1,13.3,12.3,13.3,21.5V96c0,11.4-4.8,21.6-12.5,28.9l2.1,8.2l9.2-3.7c10.3-4.1,17-13.8,17.2-24.8l-7.3-40
		C124.4,41.1,103.9,24,80,24S35.6,41.1,31.3,64.7l-7.3,40C24.3,115.7,31,125.4,41.3,129.5L41.3,129.5z"/>
	<path class="st0" d="M179.3,216h57.4L208,187.3L179.3,216z"/>
	<path class="st0" d="M95.5,143.1l-2.4-9.5C89,135.1,84.6,136,80,136s-9-0.9-13.2-2.4l-2.4,9.5l15.5,31L95.5,143.1z"/>
	<path class="st0" d="M104,96V81.9c0-3-1.7-5.8-4.4-7.2L80,64.9l-19.6,9.8c-2.7,1.4-4.4,4.1-4.4,7.2V96c0,13.2,10.8,24,24,24
		S104,109.2,104,96z"/>
	<path class="st0" d="M296,330.9v-63.8l-16,5.3v71.1C285.7,339.8,291.1,335.6,296,330.9z"/>
	<path class="st0" d="M264,220.7v40.2l48-16v66.3c10.1-16,16-34.9,16-55.2c0-57.3-46.7-104-104-104s-104,46.7-104,104
		c0,29.4,12.3,55.9,32,74.9V220.7l56-56L264,220.7z"/>
	<path class="st0" d="M216,359.6c2.6,0.2,5.3,0.4,8,0.4s5.4-0.2,8-0.4v-71.2l-16,5.3V359.6z"/>
	<path class="st0" d="M264,277.8l-16,5.3v74c5.5-1.3,10.9-3,16-5.1V277.8z"/>
	<path class="st0" d="M375.1,308.5c-7.2,1.8-13.8,5.5-19.1,10.8c-0.4,0.4-0.7,0.9-1,1.3l-23.4-11.7c-2.4,4.8-4.9,9.5-7.9,13.9
		l22.9,11.5c-1.6,4.5-2.6,9.2-2.6,14.1V360h64v-29.3L388.8,305L375.1,308.5z"/>
	<path class="st0" d="M429.3,286.1c-4.2,1.2-8.7,1.9-13.3,1.9s-9.1-0.7-13.3-1.9l-2,8.2l15.3,20.4l15.3-20.4L429.3,286.1z"/>
	<path class="st0" d="M368,168c-5.2,6.9-8,15.4-8,24v6c0,5.8,0.9,11.5,2.7,16.9c1.3,3.9,3.1,7.6,5.3,11.1v-4.3
		c0-6.9,4.4-13,10.9-15.2c11-3.7,21.1-9.9,29.2-18.1l7.8-7.8l7.8,7.8c8.2,8.2,18.3,14.4,29.2,18.1c6.6,2.2,11,8.3,11,15.2v4.3
		c2.2-3.5,4-7.2,5.3-11.1c1.8-5.5,2.7-11.2,2.7-16.9v-6c0-8.6-2.8-17.1-8-24c-7.5-10-19.5-16-32-16h-32C387.5,152,375.5,158,368,168
		z"/>
	<path class="st0" d="M384,221.8V240c0,17.6,14.4,32,32,32s32-14.4,32-32v-18.2c-11.8-3.9-22.8-10.3-32-18.6
		C406.8,211.4,395.8,217.8,384,221.8z"/>
	<path class="st0" d="M476,319.3c-5.3-5.3-11.9-9-19.1-10.8l-13.7-3.4L424,330.7V360h64v-11.7C488,337.4,483.7,327,476,319.3
		L476,319.3z"/>
	<path class="st0" d="M104,408v-11.1l-24-12l-24,12V408c0,13.2,10.8,24,24,24S104,421.2,104,408z"/>
	<path class="st0" d="M110.3,457.4l-1.9-0.4l-15.5,31h43C135.6,473.1,124.9,460.3,110.3,457.4L110.3,457.4z"/>
	<path class="st0" d="M95,445c-4.6,1.9-9.7,3-15,3s-10.4-1.1-15-3l-0.5,2l15.5,31l15.5-31L95,445z"/>
	<path class="st0" d="M49.7,457.4C35.1,460.3,24.4,473.1,24,488h43l-15.5-31L49.7,457.4z"/>
	<path class="st0" d="M132,333l-21.5,18c-6.6-4.5-14.5-7-22.5-7H72c-8.6,0-17.1,2.8-24,8c-10,7.5-16,19.5-16,32c0,3,1.2,5.9,3.3,8
		l4.7,4.4v-9.4l40-20l40,20v9.4l4.8-4.6c2-2,3.2-4.9,3.2-7.9c0-7.7-2.3-15.1-6.3-21.5l21.6-17.9C139.3,340.9,135.5,337.1,132,333
		L132,333z"/>
</g>
</svg>
