<?xml version="1.0" encoding="utf-8"?>
<!-- Generator: Adobe Illustrator 22.0.1, SVG Export Plug-In . SVG Version: 6.00 Build 0)  -->
<svg version="1.1" id="_x33_0" xmlns="http://www.w3.org/2000/svg" xmlns:xlink="http://www.w3.org/1999/xlink" x="0px" y="0px"
	 viewBox="0 0 512 512" style="enable-background:new 0 0 512 512;" xml:space="preserve">
<style type="text/css">
	.st0{fill:#FFFFFF;}
</style>
<g>
	<path class="st0" d="M312,149.3l14-16l-12-10.5L302.4,136h9.6L312,149.3z"/>
	<path class="st0" d="M312,37.3l14-16l-12-10.5L302.4,24h9.6L312,37.3z"/>
	<path class="st0" d="M252.3,266.5L220,344h72l-32.3-77.5C258.4,263.5,253.6,263.5,252.3,266.5L252.3,266.5z"/>
	<path class="st0" d="M439,208.3l-7.4,1.2c-22.6,3.8-42.3,16.1-55.6,34.7c-10.4,14.6-16,31.8-16,49.8v34h32c8.8,0,16,7.2,16,16v32
		h16v-94.7c0-18.6,11.8-35,29.5-40.9l5.1,15.2c-11.1,3.7-18.5,14-18.5,25.7v99.4l13.7,13.7l-11.3,11.3L428.7,392H392v32h56
		c13.2,0,24-10.8,24-24V259.1C472,236.9,459.1,217.2,439,208.3L439,208.3z"/>
	<path class="st0" d="M168,392v-98c0-18-5.5-35.2-16-49.8c-13.3-18.6-33.1-30.9-55.6-34.7l-7.4-1.2c-20.1,8.9-33,28.7-33,50.8V408
		h32V281.3c0-11.7-7.4-22-18.5-25.7l5.1-15.2c17.6,5.9,29.5,22.3,29.5,40.9V392H168z"/>
	<path class="st0" d="M161.9,152h6.1v-16h15.8c-1.3-22.5-8-40.7-13.7-52.5c-5.4,2.8-11.5,4.5-18,4.5h-31.1c-2,0-4.2-0.4-6.2-1.1
		L101.4,120H96c-4.4,0-8,3.6-8,8c0,3,1.2,5.9,3.3,8l13.3,13.3l-7.4,44.2l1.8,0.3c10.2,1.7,20,4.9,29,9.4V184h8
		c11.8,0,22-6.5,27.6-16h-1.7c-14.1,0-26.7-7.8-33-20.4l14.3-7.2C146.7,147.6,153.9,152,161.9,152L161.9,152z"/>
	<path class="st0" d="M419.6,100.2c-3.5,1.9-8.1,3.8-12.4,3.8H368c-6,0-11.7-1.2-17-3.2c-3.8,11.5-6.1,23.2-6.8,35.2H360v16h6.1
		c8,0,15.2-4.4,18.7-11.6l14.3,7.2c-6.3,12.6-19,20.4-33,20.4h-1.7c5.6,9.5,15.8,16,27.6,16h8v19.2c9-4.5,18.7-7.7,29-9.4l1.8-0.3
		l-7.4-44.2l13.2-13.3c2.1-2.1,3.3-5,3.3-8c0-4.4-3.6-8-8-8h-8v-8C424,107.6,422.4,103.4,419.6,100.2L419.6,100.2z"/>
	<path class="st0" d="M468.5,52.2C453.1,34.3,430.8,24,407.2,24H368c-17.6,0-32,14.4-32,32s14.4,32,32,32h39.2
		c1.4,0,5.6-2.1,8.4-4.1l4.5-3.3l4.6,3c7.7,5,12.9,12.8,14.7,21.5c9.7,3.1,16.7,12.2,16.7,22.9c0,7.3-2.8,14.2-8,19.3l-7.4,7.4
		l2.6,15.8l26.5-22.5c11.6-10,18.3-24.5,18.3-39.9v-3.2C488,85.6,481.1,66.9,468.5,52.2L468.5,52.2z"/>
	<path class="st0" d="M84.7,171.2l2.7-16.5l-7.4-7.4c-5.2-5.2-8-12-8-19.3c0-11.3,7.8-20.8,18.3-23.3L106,65.5l7.8,3.9
		c2.5,1.3,6,2.5,7.1,2.6H152c13.2,0,24-10.8,24-24s-10.8-24-24-24H82.1c-9.4,0-17.3,7.3-18,16.6l-0.4,5L45,53
		c-12.8,5.1-21,17.2-21,31c0,19.3,14.3,27.5,14.9,27.8l5.8,3.2l-3.2,9.7c-1,3-1.5,6.1-1.5,9.3c0,12.2,7.7,23.3,19.1,27.5L84.7,171.2
		z"/>
	<path class="st0" d="M328,392c-8.8,0-16,7.2-16,16s7.2,16,16,16h48v-38.1l-0.7-1.5c-2.6-5.2-7.8-8.4-13.6-8.4
		c-4.1,0-7.9,1.6-10.8,4.5L339.3,392H328z"/>
	<path class="st0" d="M388.9,376h3.1v-32h-48v21.5c5.2-3.5,11.2-5.5,17.6-5.5C373.1,360,383.4,366.1,388.9,376z"/>
	<path class="st0" d="M99.5,430.8l-6.8-6.8H56v48c0,8.8,7.2,16,16,16s16-7.2,16-16v-13l7.6-3.8c5.2-2.6,8.4-7.8,8.4-13.6
		C104,437.6,102.4,433.7,99.5,430.8z"/>
	<path class="st0" d="M264,360h32v128h-32V360z"/>
	<path class="st0" d="M216,408v80h32V360h-32V408z"/>
	<path class="st0" d="M328,456v-16c-5.9,0-11.3-1.7-16-4.4V488h32v-16C335.2,472,328,464.8,328,456z"/>
	<path class="st0" d="M104,412.7l6.8,6.8c5.9,5.9,9.2,13.8,9.2,22.1c0,11.4-6.1,21.8-16,27.3v3.1c0,5.9-1.7,11.3-4.4,16H200v-80h-96
		V412.7z M168,424h16v48h-16V424z M136,424h16v48h-16V424z"/>
	<path class="st0" d="M344,440h48v16h-48V440z"/>
	<path class="st0" d="M408,440v16c0,8.8-7.2,16-16,16h-32v16h112v-56.2c-6.7,5.1-15,8.2-24,8.2H408z"/>
	<path class="st0" d="M312,149.3l-47.6,54.4l-22-22l11.3-11.3l10,10l38.8-44.3H216v96h96V149.3z"/>
	<path class="st0" d="M312,37.3l-47.6,54.4l-22-22l11.3-11.3l10,10L302.4,24H216v96h96V37.3z"/>
</g>
</svg>
